<mxfile host="Electron" agent="Mozilla/5.0 (Windows NT 10.0; Win64; x64) AppleWebKit/537.36 (KHTML, like Gecko) draw.io/24.7.17 Chrome/128.0.6613.36 Electron/32.0.1 Safari/537.36" version="24.7.17">
  <diagram name="Страница — 1" id="tiCQUEXk2b8KjxH8DAyy">
    <mxGraphModel dx="472" dy="835" grid="1" gridSize="10" guides="1" tooltips="1" connect="1" arrows="1" fold="1" page="1" pageScale="1" pageWidth="827" pageHeight="1169" math="0" shadow="0">
      <root>
        <mxCell id="0" />
        <mxCell id="1" parent="0" />
        <mxCell id="Yg02ds8V_SWB7t8qFmQm-4" style="edgeStyle=orthogonalEdgeStyle;rounded=0;orthogonalLoop=1;jettySize=auto;html=1;exitX=0.5;exitY=1;exitDx=0;exitDy=0;entryX=0.5;entryY=0;entryDx=0;entryDy=0;" edge="1" parent="1" source="Yg02ds8V_SWB7t8qFmQm-1" target="Yg02ds8V_SWB7t8qFmQm-3">
          <mxGeometry relative="1" as="geometry" />
        </mxCell>
        <mxCell id="Yg02ds8V_SWB7t8qFmQm-1" value="Начало" style="ellipse;whiteSpace=wrap;html=1;" vertex="1" parent="1">
          <mxGeometry x="180" y="60" width="120" height="80" as="geometry" />
        </mxCell>
        <mxCell id="Yg02ds8V_SWB7t8qFmQm-9" style="edgeStyle=orthogonalEdgeStyle;rounded=0;orthogonalLoop=1;jettySize=auto;html=1;exitX=0.5;exitY=1;exitDx=0;exitDy=0;entryX=0.5;entryY=0;entryDx=0;entryDy=0;" edge="1" parent="1" source="Yg02ds8V_SWB7t8qFmQm-3" target="Yg02ds8V_SWB7t8qFmQm-8">
          <mxGeometry relative="1" as="geometry" />
        </mxCell>
        <mxCell id="Yg02ds8V_SWB7t8qFmQm-3" value="bool flag = false;" style="rounded=0;whiteSpace=wrap;html=1;" vertex="1" parent="1">
          <mxGeometry x="180" y="180" width="120" height="60" as="geometry" />
        </mxCell>
        <mxCell id="Yg02ds8V_SWB7t8qFmQm-6" value="" style="endArrow=none;dashed=1;html=1;dashPattern=1 3;strokeWidth=2;rounded=0;" edge="1" parent="1" target="Yg02ds8V_SWB7t8qFmQm-7">
          <mxGeometry width="50" height="50" relative="1" as="geometry">
            <mxPoint x="240" y="160" as="sourcePoint" />
            <mxPoint x="240" y="160" as="targetPoint" />
          </mxGeometry>
        </mxCell>
        <mxCell id="Yg02ds8V_SWB7t8qFmQm-7" value="&lt;div&gt;#include &amp;lt;iostream&amp;gt;&lt;/div&gt;&lt;div&gt;#include &amp;lt;cmath&amp;gt;&lt;/div&gt;&lt;div&gt;using namespace std;&lt;/div&gt;&lt;div&gt;int main()&lt;/div&gt;&lt;div&gt;{&lt;/div&gt;&lt;div&gt;&lt;span style=&quot;white-space-collapse: collapse;&quot;&gt;&lt;span style=&quot;white-space-collapse: preserve;&quot;&gt;&#x9;&lt;/span&gt;setlocale(LC_ALL, &quot;Russian&quot;);&lt;/span&gt;&lt;/div&gt;&lt;div&gt;&lt;span style=&quot;white-space-collapse: collapse;&quot;&gt;&lt;span style=&quot;white-space-collapse: preserve;&quot;&gt;&#x9;&lt;/span&gt;int n, s, k;&lt;/span&gt;&lt;/div&gt;" style="strokeWidth=2;html=1;shape=mxgraph.flowchart.annotation_1;align=left;pointerEvents=1;" vertex="1" parent="1">
          <mxGeometry x="330" y="110" width="50" height="100" as="geometry" />
        </mxCell>
        <mxCell id="Yg02ds8V_SWB7t8qFmQm-11" style="edgeStyle=orthogonalEdgeStyle;rounded=0;orthogonalLoop=1;jettySize=auto;html=1;exitX=0.5;exitY=1;exitDx=0;exitDy=0;entryX=0.5;entryY=0;entryDx=0;entryDy=0;" edge="1" parent="1" source="Yg02ds8V_SWB7t8qFmQm-8" target="Yg02ds8V_SWB7t8qFmQm-10">
          <mxGeometry relative="1" as="geometry" />
        </mxCell>
        <mxCell id="Yg02ds8V_SWB7t8qFmQm-8" value="cout &amp;lt;&amp;lt; &quot;Введите число и цифру: \n&quot;;" style="shape=parallelogram;perimeter=parallelogramPerimeter;whiteSpace=wrap;html=1;fixedSize=1;" vertex="1" parent="1">
          <mxGeometry x="180" y="270" width="120" height="60" as="geometry" />
        </mxCell>
        <mxCell id="Yg02ds8V_SWB7t8qFmQm-13" style="edgeStyle=orthogonalEdgeStyle;rounded=0;orthogonalLoop=1;jettySize=auto;html=1;exitX=0.5;exitY=1;exitDx=0;exitDy=0;entryX=0.5;entryY=0;entryDx=0;entryDy=0;" edge="1" parent="1" source="Yg02ds8V_SWB7t8qFmQm-10" target="Yg02ds8V_SWB7t8qFmQm-12">
          <mxGeometry relative="1" as="geometry" />
        </mxCell>
        <mxCell id="Yg02ds8V_SWB7t8qFmQm-10" value="cin &amp;gt;&amp;gt; n &amp;gt;&amp;gt; s;" style="shape=parallelogram;perimeter=parallelogramPerimeter;whiteSpace=wrap;html=1;fixedSize=1;" vertex="1" parent="1">
          <mxGeometry x="180" y="360" width="120" height="60" as="geometry" />
        </mxCell>
        <mxCell id="Yg02ds8V_SWB7t8qFmQm-15" style="edgeStyle=orthogonalEdgeStyle;rounded=0;orthogonalLoop=1;jettySize=auto;html=1;exitX=0.5;exitY=1;exitDx=0;exitDy=0;entryX=0.5;entryY=0;entryDx=0;entryDy=0;" edge="1" parent="1" source="Yg02ds8V_SWB7t8qFmQm-12" target="Yg02ds8V_SWB7t8qFmQm-14">
          <mxGeometry relative="1" as="geometry" />
        </mxCell>
        <mxCell id="Yg02ds8V_SWB7t8qFmQm-29" style="edgeStyle=orthogonalEdgeStyle;rounded=0;orthogonalLoop=1;jettySize=auto;html=1;exitX=1;exitY=0.5;exitDx=0;exitDy=0;entryX=0.5;entryY=0;entryDx=0;entryDy=0;" edge="1" parent="1" source="Yg02ds8V_SWB7t8qFmQm-12" target="Yg02ds8V_SWB7t8qFmQm-28">
          <mxGeometry relative="1" as="geometry">
            <Array as="points">
              <mxPoint x="440" y="490" />
              <mxPoint x="440" y="980" />
              <mxPoint x="240" y="980" />
            </Array>
          </mxGeometry>
        </mxCell>
        <mxCell id="Yg02ds8V_SWB7t8qFmQm-12" value="while (n &amp;gt; 0 &amp;amp;&amp;amp; !flag)" style="shape=hexagon;perimeter=hexagonPerimeter2;whiteSpace=wrap;html=1;fixedSize=1;" vertex="1" parent="1">
          <mxGeometry x="180" y="450" width="120" height="80" as="geometry" />
        </mxCell>
        <mxCell id="Yg02ds8V_SWB7t8qFmQm-17" style="edgeStyle=orthogonalEdgeStyle;rounded=0;orthogonalLoop=1;jettySize=auto;html=1;exitX=0.5;exitY=1;exitDx=0;exitDy=0;entryX=0.5;entryY=0;entryDx=0;entryDy=0;" edge="1" parent="1" source="Yg02ds8V_SWB7t8qFmQm-14" target="Yg02ds8V_SWB7t8qFmQm-16">
          <mxGeometry relative="1" as="geometry" />
        </mxCell>
        <mxCell id="Yg02ds8V_SWB7t8qFmQm-14" value="k = n % 10;" style="rounded=0;whiteSpace=wrap;html=1;" vertex="1" parent="1">
          <mxGeometry x="180" y="560" width="120" height="60" as="geometry" />
        </mxCell>
        <mxCell id="Yg02ds8V_SWB7t8qFmQm-20" style="edgeStyle=orthogonalEdgeStyle;rounded=0;orthogonalLoop=1;jettySize=auto;html=1;exitX=0;exitY=0.5;exitDx=0;exitDy=0;" edge="1" parent="1" source="Yg02ds8V_SWB7t8qFmQm-16" target="Yg02ds8V_SWB7t8qFmQm-18">
          <mxGeometry relative="1" as="geometry" />
        </mxCell>
        <mxCell id="Yg02ds8V_SWB7t8qFmQm-24" style="edgeStyle=orthogonalEdgeStyle;rounded=0;orthogonalLoop=1;jettySize=auto;html=1;exitX=1;exitY=0.5;exitDx=0;exitDy=0;entryX=0.5;entryY=0;entryDx=0;entryDy=0;" edge="1" parent="1" source="Yg02ds8V_SWB7t8qFmQm-16" target="Yg02ds8V_SWB7t8qFmQm-23">
          <mxGeometry relative="1" as="geometry" />
        </mxCell>
        <mxCell id="Yg02ds8V_SWB7t8qFmQm-16" value="if (k == s)" style="rhombus;whiteSpace=wrap;html=1;" vertex="1" parent="1">
          <mxGeometry x="200" y="650" width="80" height="80" as="geometry" />
        </mxCell>
        <mxCell id="Yg02ds8V_SWB7t8qFmQm-21" style="edgeStyle=orthogonalEdgeStyle;rounded=0;orthogonalLoop=1;jettySize=auto;html=1;exitX=0.5;exitY=1;exitDx=0;exitDy=0;entryX=0.5;entryY=0;entryDx=0;entryDy=0;" edge="1" parent="1" source="Yg02ds8V_SWB7t8qFmQm-18" target="Yg02ds8V_SWB7t8qFmQm-19">
          <mxGeometry relative="1" as="geometry" />
        </mxCell>
        <mxCell id="Yg02ds8V_SWB7t8qFmQm-18" value="flag = true;" style="rounded=0;whiteSpace=wrap;html=1;" vertex="1" parent="1">
          <mxGeometry x="80" y="760" width="120" height="60" as="geometry" />
        </mxCell>
        <mxCell id="Yg02ds8V_SWB7t8qFmQm-25" style="edgeStyle=orthogonalEdgeStyle;rounded=0;orthogonalLoop=1;jettySize=auto;html=1;exitX=0.5;exitY=1;exitDx=0;exitDy=0;entryX=0;entryY=0.5;entryDx=0;entryDy=0;" edge="1" parent="1" source="Yg02ds8V_SWB7t8qFmQm-19" target="Yg02ds8V_SWB7t8qFmQm-12">
          <mxGeometry relative="1" as="geometry">
            <Array as="points">
              <mxPoint x="140" y="950" />
              <mxPoint x="30" y="950" />
              <mxPoint x="30" y="490" />
            </Array>
          </mxGeometry>
        </mxCell>
        <mxCell id="Yg02ds8V_SWB7t8qFmQm-19" value="cout &amp;lt;&amp;lt; &quot;Цифра есть в числе&quot; &amp;lt;&amp;lt; endl;" style="shape=parallelogram;perimeter=parallelogramPerimeter;whiteSpace=wrap;html=1;fixedSize=1;" vertex="1" parent="1">
          <mxGeometry x="80" y="850" width="120" height="60" as="geometry" />
        </mxCell>
        <mxCell id="Yg02ds8V_SWB7t8qFmQm-22" value="1" style="text;html=1;align=center;verticalAlign=middle;resizable=0;points=[];autosize=1;strokeColor=none;fillColor=none;" vertex="1" parent="1">
          <mxGeometry x="125" y="668" width="30" height="30" as="geometry" />
        </mxCell>
        <mxCell id="Yg02ds8V_SWB7t8qFmQm-26" style="edgeStyle=orthogonalEdgeStyle;rounded=0;orthogonalLoop=1;jettySize=auto;html=1;exitX=0.5;exitY=1;exitDx=0;exitDy=0;" edge="1" parent="1" source="Yg02ds8V_SWB7t8qFmQm-23">
          <mxGeometry relative="1" as="geometry">
            <mxPoint x="140" y="950" as="targetPoint" />
            <Array as="points">
              <mxPoint x="340" y="950" />
            </Array>
          </mxGeometry>
        </mxCell>
        <mxCell id="Yg02ds8V_SWB7t8qFmQm-23" value="n /= 10;" style="rounded=0;whiteSpace=wrap;html=1;" vertex="1" parent="1">
          <mxGeometry x="280" y="760" width="120" height="60" as="geometry" />
        </mxCell>
        <mxCell id="Yg02ds8V_SWB7t8qFmQm-27" value="0" style="text;html=1;align=center;verticalAlign=middle;resizable=0;points=[];autosize=1;strokeColor=none;fillColor=none;" vertex="1" parent="1">
          <mxGeometry x="315" y="668" width="30" height="30" as="geometry" />
        </mxCell>
        <mxCell id="Yg02ds8V_SWB7t8qFmQm-31" style="edgeStyle=orthogonalEdgeStyle;rounded=0;orthogonalLoop=1;jettySize=auto;html=1;exitX=0;exitY=0.5;exitDx=0;exitDy=0;" edge="1" parent="1" source="Yg02ds8V_SWB7t8qFmQm-28" target="Yg02ds8V_SWB7t8qFmQm-30">
          <mxGeometry relative="1" as="geometry" />
        </mxCell>
        <mxCell id="Yg02ds8V_SWB7t8qFmQm-35" style="edgeStyle=orthogonalEdgeStyle;rounded=0;orthogonalLoop=1;jettySize=auto;html=1;exitX=1;exitY=0.5;exitDx=0;exitDy=0;entryX=0.5;entryY=0;entryDx=0;entryDy=0;" edge="1" parent="1" source="Yg02ds8V_SWB7t8qFmQm-28" target="Yg02ds8V_SWB7t8qFmQm-33">
          <mxGeometry relative="1" as="geometry">
            <Array as="points">
              <mxPoint x="320" y="1040" />
              <mxPoint x="320" y="1145" />
              <mxPoint x="240" y="1145" />
            </Array>
          </mxGeometry>
        </mxCell>
        <mxCell id="Yg02ds8V_SWB7t8qFmQm-28" value="if (!flag)" style="rhombus;whiteSpace=wrap;html=1;" vertex="1" parent="1">
          <mxGeometry x="200" y="1000" width="80" height="80" as="geometry" />
        </mxCell>
        <mxCell id="Yg02ds8V_SWB7t8qFmQm-34" style="edgeStyle=orthogonalEdgeStyle;rounded=0;orthogonalLoop=1;jettySize=auto;html=1;exitX=0.5;exitY=1;exitDx=0;exitDy=0;" edge="1" parent="1" source="Yg02ds8V_SWB7t8qFmQm-30" target="Yg02ds8V_SWB7t8qFmQm-33">
          <mxGeometry relative="1" as="geometry">
            <Array as="points">
              <mxPoint x="140" y="1180" />
              <mxPoint x="240" y="1180" />
            </Array>
          </mxGeometry>
        </mxCell>
        <mxCell id="Yg02ds8V_SWB7t8qFmQm-30" value="cout &amp;lt;&amp;lt; &quot;Цифры нет в числе&quot; &amp;lt;&amp;lt; endl;" style="shape=parallelogram;perimeter=parallelogramPerimeter;whiteSpace=wrap;html=1;fixedSize=1;" vertex="1" parent="1">
          <mxGeometry x="80" y="1100" width="120" height="60" as="geometry" />
        </mxCell>
        <mxCell id="Yg02ds8V_SWB7t8qFmQm-32" value="1" style="text;html=1;align=center;verticalAlign=middle;resizable=0;points=[];autosize=1;strokeColor=none;fillColor=none;" vertex="1" parent="1">
          <mxGeometry x="125" y="1018" width="30" height="30" as="geometry" />
        </mxCell>
        <mxCell id="Yg02ds8V_SWB7t8qFmQm-33" value="Конец" style="ellipse;whiteSpace=wrap;html=1;" vertex="1" parent="1">
          <mxGeometry x="180" y="1210" width="120" height="80" as="geometry" />
        </mxCell>
        <mxCell id="Yg02ds8V_SWB7t8qFmQm-36" value="0" style="text;html=1;align=center;verticalAlign=middle;resizable=0;points=[];autosize=1;strokeColor=none;fillColor=none;" vertex="1" parent="1">
          <mxGeometry x="295" y="1018" width="30" height="30" as="geometry" />
        </mxCell>
        <mxCell id="Yg02ds8V_SWB7t8qFmQm-37" value="" style="endArrow=none;dashed=1;html=1;dashPattern=1 3;strokeWidth=2;rounded=0;" edge="1" parent="1" target="Yg02ds8V_SWB7t8qFmQm-38">
          <mxGeometry width="50" height="50" relative="1" as="geometry">
            <mxPoint x="240" y="1190" as="sourcePoint" />
            <mxPoint x="240" y="1190" as="targetPoint" />
          </mxGeometry>
        </mxCell>
        <mxCell id="Yg02ds8V_SWB7t8qFmQm-38" value="&lt;div&gt;&lt;span style=&quot;white-space-collapse: collapse;&quot;&gt;&lt;span style=&quot;white-space-collapse: preserve;&quot;&gt;&#x9;&lt;/span&gt;return 0;&lt;/span&gt;&lt;/div&gt;&lt;div&gt;}&lt;/div&gt;" style="strokeWidth=2;html=1;shape=mxgraph.flowchart.annotation_1;align=left;pointerEvents=1;" vertex="1" parent="1">
          <mxGeometry x="330" y="1140" width="50" height="100" as="geometry" />
        </mxCell>
      </root>
    </mxGraphModel>
  </diagram>
</mxfile>
